<?xml version="1.0" encoding="UTF-8"?>
<svg width="576px" height="117px" viewBox="0 0 576 117" version="1.1" xmlns="http://www.w3.org/2000/svg" xmlns:xlink="http://www.w3.org/1999/xlink">
    <!-- Generator: Sketch 55.2 (78181) - https://sketchapp.com -->
    <title>Group</title>
    <desc>Created with Sketch.</desc>
    <g id="Assets" stroke="none" stroke-width="1" fill="none" fill-rule="evenodd">
        <g id="Artboard" transform="translate(-37.000000, -83.000000)">
            <g id="Group" transform="translate(43.000000, 89.000000)">
                <g id="sw-wide" transform="translate(129.000000, 18.000300)" fill="#FFFFFF">
                    <g id="assets/wordmark/primary">
                        <g id="Group-16">
                            <path d="M11.6834505,72.99147 C6.83714202,71.58147 2.94086011,69.74847 0.00164202128,67.49247 L5.16462606,56.02447 C7.97717394,58.09247 11.3222059,59.75392 15.2020676,61.00647 C19.0772378,62.26137 22.9594452,62.88647 26.8346154,62.88647 C31.1554771,62.88647 34.3433441,62.24492 36.4052537,60.95947 C38.4718548,59.67637 39.501642,57.96557 39.501642,55.83647 C39.501642,54.26902 38.8940888,52.96712 37.6743016,51.93547 C36.4568601,50.90147 34.8899027,50.07192 32.9828122,49.44212 C31.0733761,48.81937 28.4930569,48.12847 25.239509,47.37647 C20.2360356,46.18737 16.1403654,44.99592 12.9478069,43.80447 C9.75993989,42.61302 7.0248016,40.70247 4.73770053,38.07047 C2.45529096,35.43847 1.31525904,31.92757 1.31525904,27.54247 C1.31525904,23.71902 2.3473867,20.25747 4.41164202,17.15547 C6.4735516,14.05347 9.58400904,11.59537 13.7500516,9.77647 C17.9043654,7.95992 22.9899399,7.04812 28.997392,7.04812 C33.1845463,7.04812 37.2802165,7.55102 41.2844027,8.55447 C45.2885888,9.55792 48.7931314,10.99847 51.7956846,12.87847 L47.1041952,24.44047 C41.0380995,20.99537 34.9673122,19.27047 28.9012165,19.27047 C24.6436899,19.27047 21.5027378,19.96137 19.4713229,21.33847 C17.4375622,22.71557 16.4218548,24.53447 16.4218548,26.79047 C16.4218548,29.04647 17.5947271,30.72437 19.9404718,31.81712 C22.2862165,32.91692 25.8681686,33.99792 30.6839824,35.06247 C35.6851101,36.25392 39.7854718,37.44537 42.9756846,38.63447 C46.1635516,39.82592 48.8986899,41.70592 51.185791,44.27447 C53.4658548,46.84537 54.6129239,50.32337 54.6129239,54.70847 C54.6129239,58.46847 53.5643761,61.89947 51.4649346,65.00147 C49.3701846,68.10347 46.2292324,70.56392 42.035041,72.38047 C37.8431952,74.19702 32.7482378,75.10647 26.7431314,75.10647 C21.5519984,75.10647 16.529759,74.40147 11.6834505,72.99147 Z M99.2273457,58.89147 C101.636426,56.35347 102.842138,52.95537 102.842138,48.69247 C102.842138,44.43192 101.636426,41.03147 99.2273457,38.49347 C96.8229574,35.95547 93.7383032,34.68647 89.9874574,34.68647 C86.234266,34.68647 83.1496117,35.95547 80.7452234,38.49347 C78.3361436,41.03147 77.1304309,44.43192 77.1304309,48.69247 C77.1304309,52.95537 78.3361436,56.35347 80.7452234,58.89147 C83.1496117,61.42947 86.234266,62.69847 89.9874574,62.69847 C93.7383032,62.69847 96.8229574,61.42947 99.2273457,58.89147 Z M105.326282,25.89747 C109.173303,28.05947 112.192277,31.10037 114.383202,35.01547 C116.574128,38.93292 117.667245,43.49192 117.667245,48.69247 C117.667245,53.89537 116.574128,58.45202 114.383202,62.36712 C112.192277,66.28457 109.173303,69.32312 105.326282,71.48747 C101.481606,73.64947 97.2123511,74.73047 92.5208617,74.73047 C86.0794468,74.73047 81.0102926,72.69537 77.3180904,68.62047 L77.3180904,92.21447 L62.6806436,92.21447 L62.6806436,23.40647 L76.6636277,23.40647 L76.6636277,29.23447 C80.2924947,24.84937 85.5751117,22.65447 92.5208617,22.65447 C97.2123511,22.65447 101.481606,23.73547 105.326282,25.89747 Z M127.420851,73.97941 L127.420851,4.23141 L142.058298,4.23141 L142.058298,73.97941 L127.420851,73.97941 Z M155.663617,73.97941 L155.663617,23.40741 L170.301064,23.40741 L170.301064,73.97941 L155.663617,73.97941 Z M156.414255,14.00741 C154.727665,12.43996 153.880851,10.49886 153.880851,8.17706 C153.880851,5.85996 154.727665,3.91651 156.414255,2.34906 C158.105537,0.78396 160.294117,-0.00094 162.984686,-0.00094 C165.67291,-0.00094 167.863835,0.75106 169.54808,2.25741 C171.239362,3.76141 172.08383,5.63906 172.08383,7.89506 C172.08383,10.33906 171.239362,12.36241 169.54808,13.95806 C167.863835,15.55606 165.67291,16.35741 162.984686,16.35741 C160.294117,16.35741 158.105537,15.57251 156.414255,14.00741 Z M216.464146,71.534 C215.026205,72.6009 213.262205,73.3999 211.162763,73.93335 C209.070359,74.4621 206.860668,74.73 204.547763,74.73 C198.545003,74.73 193.900428,73.19545 190.61404,70.124 C187.329997,67.0549 185.690322,62.5429 185.690322,56.588 L185.690322,34.686 L177.902449,34.686 L177.902449,23.40835 L185.690322,23.40835 L185.690322,12.22 L200.327769,12.22 L200.327769,23.40835 L212.898614,23.40835 L212.898614,34.686 L200.327769,34.686 L200.327769,56.4 C200.327769,58.53145 200.874327,60.17645 201.967444,61.335 C203.062907,62.49355 204.611098,63.074 206.614364,63.074 C208.927269,63.074 210.897694,62.4489 212.523295,61.194 L216.464146,71.534 Z M306.349095,23.40741 L288.04994,73.97941 L273.975472,73.97941 L262.622068,42.58106 L250.893345,73.97941 L236.818877,73.97941 L218.618244,23.40741 L232.411222,23.40741 L244.329951,57.62341 L256.713137,23.40741 L269.096323,23.40741 L281.108882,57.62341 L293.400584,23.40741 L306.349095,23.40741 Z M313.199138,73.97941 L313.199138,23.40741 L327.836585,23.40741 L327.836585,73.97941 L313.199138,73.97941 Z M313.949777,14.00741 C312.263186,12.43996 311.416372,10.49886 311.416372,8.17706 C311.416372,5.85996 312.263186,3.91651 313.949777,2.34906 C315.641059,0.78396 317.829638,-0.00094 320.520207,-0.00094 C323.208431,-0.00094 325.399356,0.75106 327.085947,2.25741 C328.774883,3.76141 329.619351,5.63906 329.619351,7.89506 C329.619351,10.33906 328.774883,12.36241 327.085947,13.95806 C325.399356,15.55606 323.208431,16.35741 320.520207,16.35741 C317.829638,16.35741 315.641059,15.57251 313.949777,14.00741 Z M346.130579,73.17947 C342.126393,72.14547 338.938526,70.84592 336.55994,69.27847 L341.439089,58.74812 C343.69335,60.19337 346.414414,61.36837 349.602281,62.27312 C352.792494,63.18492 355.921717,63.63612 358.98526,63.63612 C365.180371,63.63612 368.276754,62.10392 368.276754,59.03012 C368.276754,57.59192 367.42994,56.55792 365.74335,55.93047 C364.054414,55.30537 361.455329,54.77192 357.955478,54.33012 C353.826967,53.70737 350.413909,52.98357 347.725685,52.17047 C345.035116,51.35737 342.708137,49.91447 340.737712,47.84647 C338.767286,45.77847 337.782073,42.83392 337.782073,39.01047 C337.782073,35.81447 338.703951,32.98037 340.550052,30.50347 C342.391462,28.02892 345.086722,26.10192 348.619414,24.72247 C352.14976,23.34537 356.329877,22.65447 361.143345,22.65447 C364.708877,22.65447 368.260334,23.04692 371.795371,23.82947 C375.328063,24.61437 378.250861,25.69537 380.566111,27.07247 L375.691653,37.50647 C371.246467,35.00137 366.400159,33.74647 361.143345,33.74647 C358.014121,33.74647 355.668377,34.18357 354.106111,35.06247 C352.543845,35.93902 351.760366,37.06937 351.760366,38.44647 C351.760366,40.01392 352.604834,41.11137 354.29377,41.73647 C355.985052,42.36392 358.675621,42.95847 362.363132,43.52247 C366.491643,44.21337 369.871861,44.94657 372.496749,45.73147 C375.126329,46.51402 377.408738,47.94047 379.346323,50.00847 C381.283909,52.07647 382.255047,54.95992 382.255047,58.65647 C382.255047,61.78902 381.316749,64.57847 379.442499,67.02247 C377.563557,69.46647 374.828419,71.36292 371.232393,72.70947 C367.631674,74.05602 363.367111,74.73047 358.422281,74.73047 C354.230435,74.73047 350.134765,74.21112 346.130579,73.17947 Z M406.185396,36.56647 C403.931135,38.44647 402.556529,41.01737 402.056885,44.27447 L426.921779,44.27447 C426.417444,41.07847 425.042837,38.52637 422.793268,36.61347 C420.539007,34.70292 417.785103,33.74647 414.533901,33.74647 C411.219364,33.74647 408.434965,34.68647 406.185396,36.56647 Z M440.433268,52.82847 L402.239853,52.82847 C402.931848,55.96337 404.555103,58.43792 407.119002,60.25447 C409.685247,62.07337 412.87546,62.98047 416.691986,62.98047 C419.321566,62.98047 421.648545,62.58802 423.682305,61.80547 C425.716066,61.02292 427.609082,59.78447 429.359007,58.09247 L437.14688,66.55247 C432.392055,72.00447 425.450997,74.73047 416.314321,74.73047 C410.62589,74.73047 405.589577,73.61892 401.210071,71.39347 C396.830566,69.17037 393.452694,66.08247 391.076454,62.13447 C388.697869,58.18647 387.510922,53.70737 387.510922,48.69247 C387.510922,43.74337 388.683795,39.27602 391.029539,35.29747 C393.375284,31.31892 396.595991,28.21692 400.696353,25.99147 C404.792023,23.76837 409.373263,22.65447 414.442417,22.65447 C419.38021,22.65447 423.85589,23.71902 427.860077,25.84812 C431.859571,27.98192 435.002869,31.03457 437.28997,35.01547 C439.570034,38.99402 440.712412,43.61647 440.712412,48.88047 C440.712412,49.06847 440.620928,50.38447 440.433268,52.82847 Z" id="Combined-Shape"></path>
                        </g>
                    </g>
                </g>
                <g id="Group-2">
                    <polygon id="stroke" fill="#FFFFFF" points="0.6638 25.7097 44.2558 0.5417 87.8488 25.7097 87.8488 93.2817 0.6638 93.2817"></polygon>
                    <polygon id="bg" stroke="#FFFFFF" stroke-width="12" points="0.6638 26.1987 44.2558 1.0307 87.8488 26.1987 87.8488 93.7707 0.6638 93.7707"></polygon>
                    <g id="assets/logo/primary">
                        <path d="M33.4193418,57.5219177 L43.9899518,51.4193362 L-6.24113475e-05,26.0216624 L-6.24113475e-05,51.1029106 C3.29650496,49.3260596 7.44998014,48.4011234 12.2057248,48.4011234 C22.5603915,48.4011234 29.113583,52.798627 33.4193418,57.5219177" id="Fill-1" fill="#1CC29F"></path>
                        <path d="M14.0108482,92.529566 C18.4170894,92.529566 21.7392454,91.2301617 21.7392454,87.9073816 C21.7392454,84.5128284 17.4777986,83.2128 12.2052879,81.9127716 C8.2802383,80.9073248 3.77538723,79.8987574 0.000124822695,77.9964596 L0.000124822695,84.4404312 C3.17811064,89.5687716 8.45062128,92.529566 14.0108482,92.529566" id="Fill-4" fill="#1CC29F"></path>
                        <polygon id="Fill-6" fill="#52595F" points="87.9799035 76.8164482 87.9799035 26.0217248 43.9898894 51.4193986"></polygon>
                        <polygon id="Fill-9" fill="#ACE4D6" points="87.9792794 26.0218496 43.9898894 0.624175887 -0.000124822695 26.0218496 43.9898894 51.4188993"></polygon>
                        <path d="M43.9896397,51.4185248 L33.4190298,57.5217305 L22.0882496,64.0643121 C19.1929872,61.7619574 15.5107177,60.1011915 12.1336397,60.1011915 C8.01636312,60.1011915 5.9218383,61.4723688 5.9218383,64.0012766 C5.9218383,66.9264965 8.78714326,68.320766 12.7571291,69.4510355 C13.5903206,69.6881986 14.4690723,69.9147518 15.3833986,70.1400567 C24.1228596,72.2345816 35.8231149,74.9070355 35.8231149,86.8956312 C35.8231149,89.4126809 35.2932426,91.9209929 34.1323915,94.209617 L87.9790298,94.209617 L87.9790298,76.8161986 L43.9896397,51.4185248 Z" id="Fill-12" fill="#373B3F"></path>
                        <path d="M15.3833986,70.1401191 C14.4690723,69.9148142 13.5903206,69.688261 12.7571291,69.4510979 C8.78714326,68.3208284 5.9218383,66.9265589 5.9218383,64.001339 C5.9218383,61.4724312 8.01636312,60.1012539 12.1336397,60.1012539 C15.5107177,60.1012539 19.1929872,61.7620199 22.0882496,64.0643745 L33.4190298,57.5217929 C29.1126468,52.7985021 22.5600794,48.4003745 12.2054128,48.4003745 C7.44904397,48.4003745 3.29681702,49.3253106 0.00024964539,51.1027858 L0.00024964539,76.816261 L0.00024964539,77.9964596 C3.77488794,79.8987574 8.28036312,80.9067007 12.2054128,81.9121475 C17.4772993,83.2128 21.7393702,84.5122043 21.7393702,87.9073816 C21.7393702,91.2301617 18.4165901,92.529566 14.010973,92.529566 C8.45012199,92.529566 3.17761135,89.5687716 0.00024964539,84.4404312 L0.00024964539,94.2096794 L34.1323915,94.2096794 C35.2932426,91.9210553 35.8231149,89.4127433 35.8231149,86.8956936 C35.8231149,74.9070979 24.1228596,72.2340199 15.3833986,70.1401191" id="Fill-14" fill="#FFFFFF"></path>
                    </g>
                </g>
            </g>
        </g>
    </g>
</svg>