<?xml version="1.0" encoding="UTF-8"?>
<svg width="94px" height="94px" viewBox="0 0 94 94" version="1.1" xmlns="http://www.w3.org/2000/svg" xmlns:xlink="http://www.w3.org/1999/xlink">
    <!-- Generator: Sketch 55.2 (78181) - https://sketchapp.com -->
    <title>assets/logo/primary</title>
    <desc>Created with Sketch.</desc>
    <g id="assets/logo/primary" stroke="none" stroke-width="1" fill="none" fill-rule="evenodd">
        <path d="M36.4193418,57.5219177 L46.9899518,51.4193362 L2.99993759,26.0216624 L2.99993759,51.1029106 C6.29650496,49.3260596 10.4499801,48.4011234 15.2057248,48.4011234 C25.5603915,48.4011234 32.113583,52.798627 36.4193418,57.5219177" id="Fill-1" fill="#1CC29F"></path>
        <path d="M17.0108482,92.529566 C21.4170894,92.529566 24.7392454,91.2301617 24.7392454,87.9073816 C24.7392454,84.5128284 20.4777986,83.2128 15.2052879,81.9127716 C11.2802383,80.9073248 6.77538723,79.8987574 3.00012482,77.9964596 L3.00012482,84.4404312 C6.17811064,89.5687716 11.4506213,92.529566 17.0108482,92.529566" id="Fill-4" fill="#1CC29F"></path>
        <polygon id="Fill-6" fill="#52595F" points="90.9799035 76.8164482 90.9799035 26.0217248 46.9898894 51.4193986"></polygon>
        <polygon id="Fill-9" fill="#ACE4D6" points="90.9792794 26.0218496 46.9898894 0.624175887 2.99987518 26.0218496 46.9898894 51.4188993"></polygon>
        <path d="M46.9896397,51.4185248 L36.4190298,57.5217305 L25.0882496,64.0643121 C22.1929872,61.7619574 18.5107177,60.1011915 15.1336397,60.1011915 C11.0163631,60.1011915 8.9218383,61.4723688 8.9218383,64.0012766 C8.9218383,66.9264965 11.7871433,68.320766 15.7571291,69.4510355 C16.5903206,69.6881986 17.4690723,69.9147518 18.3833986,70.1400567 C27.1228596,72.2345816 38.8231149,74.9070355 38.8231149,86.8956312 C38.8231149,89.4126809 38.2932426,91.9209929 37.1323915,94.209617 L90.9790298,94.209617 L90.9790298,76.8161986 L46.9896397,51.4185248 Z" id="Fill-12" fill="#373B3F"></path>
        <path d="M18.3833986,70.1401191 C17.4690723,69.9148142 16.5903206,69.688261 15.7571291,69.4510979 C11.7871433,68.3208284 8.9218383,66.9265589 8.9218383,64.001339 C8.9218383,61.4724312 11.0163631,60.1012539 15.1336397,60.1012539 C18.5107177,60.1012539 22.1929872,61.7620199 25.0882496,64.0643745 L36.4190298,57.5217929 C32.1126468,52.7985021 25.5600794,48.4003745 15.2054128,48.4003745 C10.449044,48.4003745 6.29681702,49.3253106 3.00024965,51.1027858 L3.00024965,76.816261 L3.00024965,77.9964596 C6.77488794,79.8987574 11.2803631,80.9067007 15.2054128,81.9121475 C20.4772993,83.2128 24.7393702,84.5122043 24.7393702,87.9073816 C24.7393702,91.2301617 21.4165901,92.529566 17.010973,92.529566 C11.450122,92.529566 6.17761135,89.5687716 3.00024965,84.4404312 L3.00024965,94.2096794 L37.1323915,94.2096794 C38.2932426,91.9210553 38.8231149,89.4127433 38.8231149,86.8956936 C38.8231149,74.9070979 27.1228596,72.2340199 18.3833986,70.1401191" id="Fill-14" fill="#FFFFFF"></path>
    </g>
</svg>